<svg width="388" height="112" viewBox="0 0 388 112" fill="none" xmlns="http://www.w3.org/2000/svg">
<path fill-rule="evenodd" clip-rule="evenodd" d="M9 98.5C11.3333 81 27.2 45.1 72 41.5V27.5C72 24.7386 69.7614 22.5 67 22.5H58.5C57.9477 22.5 57.5 22.0523 57.5 21.5V18C57.5 8.05888 49.4411 0 39.5 0H39C29.0589 0 21 8.05887 21 18V21.5C21 22.0523 20.5523 22.5 20 22.5H12.0309C9.45962 22.5 7.30755 24.4501 7.05504 27.009L0.541879 93.009C0.251626 95.9502 2.5622 98.5 5.51771 98.5H9ZM39.25 4C31.9322 4 26 9.93223 26 17.25V21.5263C26 22.0641 26.4359 22.5 26.9737 22.5H51.5263C52.0641 22.5 52.5 22.0641 52.5 21.5263V17.25C52.5 9.93223 46.5678 4 39.25 4V4Z" fill="#D66140"/>
<path d="M59.39 77.532C61.1993 77.8693 62.6867 78.774 63.852 80.246C65.0173 81.718 65.6 83.4047 65.6 85.306C65.6 87.0233 65.1707 88.5413 64.312 89.86C63.484 91.148 62.2727 92.16 60.678 92.896C59.0833 93.632 57.1973 94 55.02 94H41.174V61.892H54.422C56.5993 61.892 58.47 62.2447 60.034 62.95C61.6287 63.6553 62.8247 64.6367 63.622 65.894C64.45 67.1513 64.864 68.5773 64.864 70.172C64.864 72.0427 64.358 73.6067 63.346 74.864C62.3647 76.1213 61.046 77.0107 59.39 77.532ZM47.614 75.14H53.502C55.0353 75.14 56.216 74.8027 57.044 74.128C57.872 73.4227 58.286 72.426 58.286 71.138C58.286 69.85 57.872 68.8533 57.044 68.148C56.216 67.4427 55.0353 67.09 53.502 67.09H47.614V75.14ZM54.1 88.756C55.664 88.756 56.8753 88.388 57.734 87.652C58.6233 86.916 59.068 85.8733 59.068 84.524C59.068 83.144 58.608 82.0707 57.688 81.304C56.768 80.5067 55.526 80.108 53.962 80.108H47.614V88.756H54.1ZM69.0106 81.724C69.0106 79.26 69.4946 77.0747 70.4626 75.168C71.4599 73.2613 72.7946 71.7947 74.4666 70.768C76.1679 69.7413 78.0599 69.228 80.1426 69.228C81.9613 69.228 83.5453 69.5947 84.8946 70.328C86.2733 71.0613 87.3733 71.9853 88.1946 73.1V69.624H94.3986V94H88.1946V90.436C87.4026 91.58 86.3026 92.5333 84.8946 93.296C83.5159 94.0293 81.9173 94.396 80.0986 94.396C78.0453 94.396 76.1679 93.868 74.4666 92.812C72.7946 91.756 71.4599 90.2747 70.4626 88.368C69.4946 86.432 69.0106 84.2173 69.0106 81.724ZM88.1946 81.812C88.1946 80.316 87.9013 79.04 87.3146 77.984C86.7279 76.8987 85.9359 76.0773 84.9386 75.52C83.9413 74.9333 82.8706 74.64 81.7266 74.64C80.5826 74.64 79.5266 74.9187 78.5586 75.476C77.5906 76.0333 76.7986 76.8547 76.1826 77.94C75.5959 78.996 75.3026 80.2573 75.3026 81.724C75.3026 83.1907 75.5959 84.4813 76.1826 85.596C76.7986 86.6813 77.5906 87.5173 78.5586 88.104C79.5559 88.6907 80.6119 88.984 81.7266 88.984C82.8706 88.984 83.9413 88.7053 84.9386 88.148C85.9359 87.5613 86.7279 86.74 87.3146 85.684C87.9013 84.5987 88.1946 83.308 88.1946 81.812ZM106.047 88.94H116.915V94H99.0509V89.028L109.699 74.684H99.0949V69.624H116.783V74.596L106.047 88.94ZM120.1 81.724C120.1 79.26 120.584 77.0747 121.552 75.168C122.55 73.2613 123.884 71.7947 125.556 70.768C127.258 69.7413 129.15 69.228 131.232 69.228C133.051 69.228 134.635 69.5947 135.984 70.328C137.363 71.0613 138.463 71.9853 139.284 73.1V69.624H145.488V94H139.284V90.436C138.492 91.58 137.392 92.5333 135.984 93.296C134.606 94.0293 133.007 94.396 131.188 94.396C129.135 94.396 127.258 93.868 125.556 92.812C123.884 91.756 122.55 90.2747 121.552 88.368C120.584 86.432 120.1 84.2173 120.1 81.724ZM139.284 81.812C139.284 80.316 138.991 79.04 138.404 77.984C137.818 76.8987 137.026 76.0773 136.028 75.52C135.031 74.9333 133.96 74.64 132.816 74.64C131.672 74.64 130.616 74.9187 129.648 75.476C128.68 76.0333 127.888 76.8547 127.272 77.94C126.686 78.996 126.392 80.2573 126.392 81.724C126.392 83.1907 126.686 84.4813 127.272 85.596C127.888 86.6813 128.68 87.5173 129.648 88.104C130.646 88.6907 131.702 88.984 132.816 88.984C133.96 88.984 135.031 88.7053 136.028 88.148C137.026 87.5613 137.818 86.74 138.404 85.684C138.991 84.5987 139.284 83.308 139.284 81.812ZM157.665 73.408C158.457 72.1173 159.483 71.1053 160.745 70.372C162.035 69.6387 163.502 69.272 165.145 69.272V75.74H163.517C161.581 75.74 160.114 76.1947 159.117 77.104C158.149 78.0133 157.665 79.5973 157.665 81.856V94H151.505V69.624H157.665V73.408Z" fill="#575758"/>
<path d="M190.734 94L183.65 81.488H180.614V94H174.174V61.892H186.226C188.71 61.892 190.826 62.3367 192.574 63.226C194.322 64.0847 195.625 65.2653 196.484 66.768C197.373 68.24 197.818 69.896 197.818 71.736C197.818 73.852 197.205 75.7687 195.978 77.486C194.751 79.1727 192.927 80.338 190.504 80.982L198.186 94H190.734ZM180.614 76.658H185.996C187.744 76.658 189.047 76.244 189.906 75.416C190.765 74.5573 191.194 73.3767 191.194 71.874C191.194 70.402 190.765 69.2673 189.906 68.47C189.047 67.642 187.744 67.228 185.996 67.228H180.614V76.658ZM226.165 81.284C226.165 82.164 226.106 82.956 225.989 83.66H208.169C208.315 85.42 208.931 86.7987 210.017 87.796C211.102 88.7933 212.437 89.292 214.021 89.292C216.309 89.292 217.937 88.3093 218.905 86.344H225.549C224.845 88.6907 223.495 90.6267 221.501 92.152C219.506 93.648 217.057 94.396 214.153 94.396C211.806 94.396 209.694 93.8827 207.817 92.856C205.969 91.8 204.517 90.3187 203.461 88.412C202.434 86.5053 201.921 84.3053 201.921 81.812C201.921 79.2893 202.434 77.0747 203.461 75.168C204.487 73.2613 205.925 71.7947 207.773 70.768C209.621 69.7413 211.747 69.228 214.153 69.228C216.47 69.228 218.538 69.7267 220.357 70.724C222.205 71.7213 223.627 73.144 224.625 74.992C225.651 76.8107 226.165 78.908 226.165 81.284ZM219.785 79.524C219.755 77.94 219.183 76.6787 218.069 75.74C216.954 74.772 215.59 74.288 213.977 74.288C212.451 74.288 211.161 74.7573 210.105 75.696C209.078 76.6053 208.447 77.8813 208.213 79.524H219.785ZM240.209 69.228C242.028 69.228 243.626 69.5947 245.005 70.328C246.384 71.032 247.469 71.956 248.261 73.1V69.624H254.465V94.176C254.465 96.4347 254.01 98.444 253.101 100.204C252.192 101.993 250.828 103.401 249.009 104.428C247.19 105.484 244.99 106.012 242.409 106.012C238.948 106.012 236.102 105.205 233.873 103.592C231.673 101.979 230.426 99.7787 230.133 96.992H236.249C236.572 98.1067 237.261 98.9867 238.317 99.632C239.402 100.307 240.708 100.644 242.233 100.644C244.022 100.644 245.474 100.101 246.589 99.016C247.704 97.96 248.261 96.3467 248.261 94.176V90.392C247.469 91.536 246.369 92.4893 244.961 93.252C243.582 94.0147 241.998 94.396 240.209 94.396C238.156 94.396 236.278 93.868 234.577 92.812C232.876 91.756 231.526 90.2747 230.529 88.368C229.561 86.432 229.077 84.2173 229.077 81.724C229.077 79.26 229.561 77.0747 230.529 75.168C231.526 73.2613 232.861 71.7947 234.533 70.768C236.234 69.7413 238.126 69.228 240.209 69.228ZM248.261 81.812C248.261 80.316 247.968 79.04 247.381 77.984C246.794 76.8987 246.002 76.0773 245.005 75.52C244.008 74.9333 242.937 74.64 241.793 74.64C240.649 74.64 239.593 74.9187 238.625 75.476C237.657 76.0333 236.865 76.8547 236.249 77.94C235.662 78.996 235.369 80.2573 235.369 81.724C235.369 83.1907 235.662 84.4813 236.249 85.596C236.865 86.6813 237.657 87.5173 238.625 88.104C239.622 88.6907 240.678 88.984 241.793 88.984C242.937 88.984 244.008 88.7053 245.005 88.148C246.002 87.5613 246.794 86.74 247.381 85.684C247.968 84.5987 248.261 83.308 248.261 81.812ZM258.897 81.724C258.897 79.26 259.381 77.0747 260.349 75.168C261.347 73.2613 262.681 71.7947 264.353 70.768C266.055 69.7413 267.947 69.228 270.029 69.228C271.848 69.228 273.432 69.5947 274.781 70.328C276.16 71.0613 277.26 71.9853 278.081 73.1V69.624H284.285V94H278.081V90.436C277.289 91.58 276.189 92.5333 274.781 93.296C273.403 94.0293 271.804 94.396 269.985 94.396C267.932 94.396 266.055 93.868 264.353 92.812C262.681 91.756 261.347 90.2747 260.349 88.368C259.381 86.432 258.897 84.2173 258.897 81.724ZM278.081 81.812C278.081 80.316 277.788 79.04 277.201 77.984C276.615 76.8987 275.823 76.0773 274.825 75.52C273.828 74.9333 272.757 74.64 271.613 74.64C270.469 74.64 269.413 74.9187 268.445 75.476C267.477 76.0333 266.685 76.8547 266.069 77.94C265.483 78.996 265.189 80.2573 265.189 81.724C265.189 83.1907 265.483 84.4813 266.069 85.596C266.685 86.6813 267.477 87.5173 268.445 88.104C269.443 88.6907 270.499 88.984 271.613 88.984C272.757 88.984 273.828 88.7053 274.825 88.148C275.823 87.5613 276.615 86.74 277.201 85.684C277.788 84.5987 278.081 83.308 278.081 81.812ZM296.462 61.44V94H290.302V61.44H296.462ZM325.208 81.284C325.208 82.164 325.149 82.956 325.032 83.66H307.212C307.358 85.42 307.974 86.7987 309.06 87.796C310.145 88.7933 311.48 89.292 313.064 89.292C315.352 89.292 316.98 88.3093 317.948 86.344H324.592C323.888 88.6907 322.538 90.6267 320.544 92.152C318.549 93.648 316.1 94.396 313.196 94.396C310.849 94.396 308.737 93.8827 306.86 92.856C305.012 91.8 303.56 90.3187 302.504 88.412C301.477 86.5053 300.964 84.3053 300.964 81.812C300.964 79.2893 301.477 77.0747 302.504 75.168C303.53 73.2613 304.968 71.7947 306.816 70.768C308.664 69.7413 310.79 69.228 313.196 69.228C315.513 69.228 317.581 69.7267 319.4 70.724C321.248 71.7213 322.67 73.144 323.668 74.992C324.694 76.8107 325.208 78.908 325.208 81.284ZM318.828 79.524C318.798 77.94 318.226 76.6787 317.112 75.74C315.997 74.772 314.633 74.288 313.02 74.288C311.494 74.288 310.204 74.7573 309.148 75.696C308.121 76.6053 307.49 77.8813 307.256 79.524H318.828ZM335.864 73.408C336.656 72.1173 337.683 71.1053 338.944 70.372C340.235 69.6387 341.701 69.272 343.344 69.272V75.74H341.716C339.78 75.74 338.313 76.1947 337.316 77.104C336.348 78.0133 335.864 79.5973 335.864 81.856V94H329.704V69.624H335.864V73.408ZM353.917 69.624V94H347.757V69.624H353.917ZM355.633 63.288L345.513 67.908V63.508L355.633 58.272V63.288ZM358.671 81.724C358.671 79.26 359.155 77.0747 360.123 75.168C361.12 73.2613 362.455 71.7947 364.127 70.768C365.828 69.7413 367.72 69.228 369.803 69.228C371.621 69.228 373.205 69.5947 374.555 70.328C375.933 71.0613 377.033 71.9853 377.855 73.1V69.624H384.059V94H377.855V90.436C377.063 91.58 375.963 92.5333 374.555 93.296C373.176 94.0293 371.577 94.396 369.759 94.396C367.705 94.396 365.828 93.868 364.127 92.812C362.455 91.756 361.12 90.2747 360.123 88.368C359.155 86.432 358.671 84.2173 358.671 81.724ZM377.855 81.812C377.855 80.316 377.561 79.04 376.975 77.984C376.388 76.8987 375.596 76.0773 374.599 75.52C373.601 74.9333 372.531 74.64 371.387 74.64C370.243 74.64 369.187 74.9187 368.219 75.476C367.251 76.0333 366.459 76.8547 365.843 77.94C365.256 78.996 364.963 80.2573 364.963 81.724C364.963 83.1907 365.256 84.4813 365.843 85.596C366.459 86.6813 367.251 87.5173 368.219 88.104C369.216 88.6907 370.272 88.984 371.387 88.984C372.531 88.984 373.601 88.7053 374.599 88.148C375.596 87.5613 376.388 86.74 376.975 85.684C377.561 84.5987 377.855 83.308 377.855 81.812Z" fill="#575758"/>
</svg>
