<svg width="233" height="152" viewBox="0 0 233 152" fill="none" xmlns="http://www.w3.org/2000/svg">
<path fill-rule="evenodd" clip-rule="evenodd" d="M90.1318 140.645L91.1223 145.597H139.655V138.169L128.265 136.188V109.941H137.674L156.988 145.597H188.187V138.169L179.273 136.188L160.454 106.97C167.388 104.163 180.858 94.7869 179.273 79.7319C178.283 70.4876 170.656 51.8009 148.074 51.0085H91.1223V59.4275L101.522 61.9036V133.712L90.1318 140.645ZM145.102 63.3893L128.265 65.3702V96.0745C134.207 99.2439 141.966 97.3951 145.102 96.0745C149.46 93.3012 151.54 85.3445 152.036 81.7128C153.224 69.8273 147.909 64.5448 145.102 63.3893Z" fill="#000000"/>
<path fill-rule="evenodd" clip-rule="evenodd" d="M1.48569 59.4276L10.8951 60.9133V133.712L0 140.645L0.49523 145.598H61.9037C71.6432 145.432 90.8252 140.15 89.6366 120.341C90.1318 112.747 86.9624 97.3622 70.3226 96.5698C76.9257 94.0937 89.4385 85.5757 86.6652 71.3131C85.1795 65.7005 78.1473 53.881 61.9037 51.5039H1.48569V59.4276ZM52.4944 63.3894L36.647 65.8656V90.1318C39.4533 90.6271 46.5516 91.3204 52.4944 90.1318C58.4371 88.9433 59.5927 80.7225 59.4276 76.7606C60.2199 69.2331 55.1356 64.71 52.4944 63.3894ZM52.4944 102.017H36.647V133.712H52.4944C61.2104 133.712 63.3894 122.817 63.3894 117.369C61.8047 108.653 55.4657 103.503 52.4944 102.017Z" fill="#000000"/>
<path d="M113.078 31.0316C113.078 29.9918 112.683 29.1877 111.892 28.6193C111.116 28.037 109.75 27.5379 107.796 27.122C105.855 26.7061 104.309 26.207 103.158 25.6247C102.021 25.0424 101.176 24.3492 100.621 23.5451C100.08 22.741 99.8101 21.7844 99.8101 20.6753C99.8101 18.8314 100.586 17.2717 102.139 15.9963C103.706 14.7208 105.702 14.083 108.128 14.083C110.679 14.083 112.745 14.7416 114.326 16.0586C115.92 17.3757 116.717 19.0602 116.717 21.112H112.849C112.849 20.0584 112.398 19.1503 111.497 18.3878C110.61 17.6253 109.487 17.244 108.128 17.244C106.728 17.244 105.633 17.549 104.843 18.159C104.052 18.769 103.657 19.5662 103.657 20.5505C103.657 21.4794 104.025 22.1795 104.76 22.6509C105.494 23.1223 106.818 23.5729 108.731 24.0026C110.659 24.4324 112.218 24.9454 113.411 25.5415C114.603 26.1377 115.483 26.8586 116.052 27.7043C116.634 28.5361 116.925 29.5551 116.925 30.7613C116.925 32.7715 116.121 34.3867 114.513 35.6067C112.905 36.8128 110.818 37.4159 108.253 37.4159C106.451 37.4159 104.857 37.097 103.47 36.4593C102.084 35.8216 100.995 34.9343 100.205 33.7974C99.4289 32.6467 99.0407 31.4059 99.0407 30.075H102.888C102.957 31.3643 103.47 32.3903 104.427 33.1528C105.397 33.9014 106.673 34.2758 108.253 34.2758C109.709 34.2758 110.873 33.9846 111.747 33.4023C112.634 32.8062 113.078 32.0159 113.078 31.0316Z" fill="#000000"/>
<path d="M141.353 19.7836C143.102 18.2883 145.121 17.749 147.412 18.1655C151.399 18.8908 153.001 21.506 152.217 26.0112L149.95 38.4791L146.724 37.8923L148.995 25.407C149.23 24.0448 149.099 22.9821 148.602 22.2191C148.116 21.4581 147.227 20.9603 145.937 20.7256C144.891 20.5353 143.922 20.6472 143.03 21.0615C142.138 21.4757 141.388 22.096 140.782 22.9224L138.336 36.3667L135.11 35.7799L139.982 8.99592L143.208 9.58269L141.353 19.7836Z" fill="#000000"/>
<path d="M171.22 35.8049C171.697 33.9877 172.48 32.4465 173.57 31.181C174.671 29.9186 175.959 29.0596 177.435 28.6041C178.922 28.1515 180.482 28.1397 182.117 28.5687C184.642 29.2317 186.453 30.6415 187.548 32.7981C188.655 34.9577 188.827 37.4889 188.065 40.3917L188.007 40.6146C187.533 42.4203 186.758 43.9516 185.683 45.2086C184.622 46.4572 183.341 47.312 181.84 47.773C180.35 48.237 178.77 48.25 177.102 47.812C174.588 47.1519 172.777 45.7422 171.67 43.5826C170.575 41.426 170.405 38.9077 171.161 36.0277L171.22 35.8049ZM174.31 37.019C173.77 39.0762 173.81 40.8521 174.432 42.3468C175.065 43.8445 176.181 44.8034 177.781 45.2234C179.393 45.6464 180.838 45.3538 182.116 44.3457C183.398 43.3261 184.337 41.6792 184.934 39.4049C185.468 37.3706 185.415 35.5974 184.773 34.0853C184.146 32.5647 183.033 31.5944 181.433 31.1744C179.867 30.7634 178.441 31.0548 177.154 32.0485C175.867 33.0422 174.919 34.699 174.31 37.019Z" fill="#000000"/>
<path d="M216.714 65.7278C214.632 67.7729 212.487 68.9443 210.278 69.2419C208.07 69.5396 206.167 68.875 204.569 67.2481C202.938 65.5874 202.181 63.7633 202.299 61.7758L195.711 68.2464L193.414 65.9071L212.355 47.3028L214.454 49.4397L213.049 51.0439C215.164 50.8373 217.054 51.5811 218.719 53.2755C220.333 54.9193 220.989 56.826 220.685 58.9957C220.39 61.1738 219.138 63.3474 216.929 65.5167L216.714 65.7278ZM214.682 63.1278C216.225 61.6126 217.12 60.0875 217.368 58.5523C217.616 57.0171 217.176 55.6763 216.05 54.5299C214.659 53.1137 212.988 52.6684 211.037 53.194L204.499 59.6148C203.939 61.5399 204.367 63.2232 205.783 64.6646C206.884 65.7858 208.2 66.2404 209.731 66.0286C211.278 65.8169 212.929 64.85 214.682 63.1278Z" fill="#000000"/>
<rect x="207.538" y="123.553" width="19.5659" height="19.5659" transform="rotate(40.9329 207.538 123.553)" fill="#000000"/>
</svg>
