<svg id="Capa_2" data-name="Capa 2" xmlns="http://www.w3.org/2000/svg" viewBox="0 0 465 465.38"><defs><style>.cls-1{fill:none;stroke:#000;stroke-miterlimit:10;stroke-width:17px;}</style></defs><path class="cls-1" d="M97.31,420.33a21.17,21.17,0,0,1-1.8-29.69,142.89,142.89,0,0,1,85.38-46.95,20.85,20.85,0,0,1,10.12.92,166,166,0,0,0,110-.07,20.91,20.91,0,0,1,9.77-1,151.24,151.24,0,0,1,89.81,46.2,21.16,21.16,0,0,1-1,30.08C376.21,441.37,327.29,477.39,257,480.2,178.38,483.35,122.47,443.05,97.31,420.33Z" transform="translate(-15.5 -23.5)"/><circle class="cls-1" cx="232.5" cy="175.93" r="71.89"/><circle class="cls-1" cx="232.5" cy="232.5" r="224"/></svg>